<?xml version="1.0" encoding="utf-8"?>
<svg version="1.0" width="512px" height="512px" viewBox="2.1 1.76 16.002 15.998" preserveAspectRatio="xMidYMid meet" xmlns="http://www.w3.org/2000/svg">
  <g id="layer101" fill="#000000" stroke="none" transform="matrix(0.003134, 0, 0, 0.003134, 2.093273, 1.754419)">
    <path d="M1090 5104 c-254 -47 -385 -96 -550 -207 -98 -65 -263 -231 -330 -331 -134 -201 -198 -401 -207 -651 -10 -289 63 -530 235 -775 56 -79 547 -578 655 -665 145 -117 337 -205 519 -240 168 -32 373 -29 516 7 l44 11 -624 626 c-567 568 -628 632 -660 696 -55 106 -72 175 -71 290 0 183 56 318 183 445 127 128 263 183 445 183 82 -1 115 -6 180 -28 152 -51 157 -55 816 -712 l616 -615 11 44 c43 161 37 396 -13 594 -30 119 -122 310 -194 404 -27 36 -186 201 -353 366 -236 236 -322 314 -388 357 -216 139 -397 195 -655 202 -82 2 -161 2 -175 -1z" style="fill: rgb(95, 99, 104);"/>
    <path d="M1700 3641 c-89 -19 -170 -84 -211 -169 -18 -36 -23 -65 -24 -122 0 -146 -59 -79 864 -1003 927 -929 873 -882 1016 -882 63 1 90 6 127 24 61 29 119 88 149 149 33 66 33 186 -1 257 -34 73 -1652 1691 -1723 1724 -53 24 -143 34 -197 22z" style="fill: rgb(95, 99, 104);"/>
    <path d="M3319 2890 c-42 -4 -100 -13 -129 -20 l-52 -12 614 -617 c453 -454 624 -632 651 -676 115 -193 122 -423 19 -619 -71 -136 -207 -251 -358 -302 -66 -22 -97 -27 -189 -27 -126 -1 -189 14 -300 71 -64 32 -128 93 -696 660 l-626 624 -11 -44 c-36 -143 -39 -348 -7 -516 35 -182 123 -374 240 -519 94 -116 588 -601 674 -661 238 -166 490 -241 775 -229 326 13 590 129 822 361 234 234 349 497 361 826 10 266 -55 501 -202 727 -45 70 -121 152 -359 391 -165 167 -330 326 -366 353 -93 71 -285 164 -401 193 -162 41 -296 52 -460 36z" style="fill: rgb(95, 99, 104);"/>
  </g>
</svg>