<?xml version="1.0" encoding="utf-8"?>
<svg viewBox="-1473.501 -1395.468 3606.005 3606.005" xmlns="http://www.w3.org/2000/svg">
  <g style="" transform="matrix(1, 0, 0, 1, -5244.958496, -1878.85498)">
    <title>tr</title>
    <path d="M 4965 3334 L 4977 3234 C 4984 3180 4989 3132 4987 3128 C 4986.647 3126.236 4994.928 3040.608 4996 3039 C 4999 3034 5010 2972 5020 2902 C 5030 2832 5042 2756 5046 2732 L 5053 2689 L 5026 2700 C 4950 2729 4880 2783 4828 2854 C 4806 2885 4800 2904 4800 2945 C 4800 3050 4722 3138 4621 3148 C 4497 3160 4390 3061 4390 2934 C 4390 2897 4435 2803 4460 2790 C 4469 2785 4497 2748 4520 2708 C 4643 2500 4826 2324 5018 2230 L 5091 2194 L 5048 2163 C 4991 2122 4885 2013 4848 1959 C 4759 1828 4722 1700 4713 1500 C 4693 1019 4890 697 5273 586 C 5516 515 5837 537 6055 640 C 6280 745 6426 937 6475 1194 C 6498 1315 6495 1612 6470 1718 C 6426 1901 6316 2040 6122 2155 L 6059 2193 L 6195 2259 L 6251 2292 C 6251 2292 6320.248 2330.938 6367 2380 C 6391.1 2405.29 6428.417 2441.447 6470 2486 C 6533 2556 6583 2623 6633 2706 C 6653 2739 6685 2783 6704 2803 C 6748 2849 6763 2898 6758 2966 C 6747 3098 6610 3183 6484 3135 C 6401 3104 6351 3028 6350 2934 C 6350 2889 6345 2876 6309 2831 C 6268 2780 6211 2736 6157 2712 C 6121 2697 6109 2697 6115 2713 C 6130 2753 6214 3303 6240 3528 C 6276 3844 6282 3874 6321 3922 C 6362 3974 6359 3987 6303 3997 C 6231 4009 6052 4005 5992 3991 C 5928 3975 5928 3976 5895 3810 C 5832 3490 5740 3350 5594 3350 C 5435 3350 5344 3493 5294 3824 C 5278 3924 5274 3938 5245 3967 C 5227 3985 5192 4005 5160 4014 C 5128 4024 5076 4029 5031 4028 C 4832 4023 4819 4016 4873 3937 L 4909 3885 L 4933 3650 C 4946 3521 4956 3414 4955 3413 C 4955 3412.272 4965 3334 4965 3334 Z" style=""/>
    <g style="">
      <path d="M 5267 3373 C 5262 3363 5278 3208 5289 3165 C 5294 3143 5303 3134 5321 3132 C 5344 3129 5347 3134 5364 3199 C 5374 3237 5383 3293 5384 3322 L 5385 3375 L 5328 3378 C 5297 3380 5270 3377 5267 3373 Z" style="fill: rgb(255, 0, 0);"/>
      <path d="M 5084 3314 C 5068 3294 5053 3273 5051 3268 C 5047 3255 5185 3120 5202 3120 C 5237 3121 5241 3135 5220 3201 C 5188 3298 5159 3350 5134 3350 C 5123 3350 5101 3334 5084 3314 Z" style="fill: rgb(255, 0, 0);"/>
      <path d="M 5230 3065 C 5214 3046 5222 2927 5240 2905 C 5254 2888 5293 2885 5321 2900 C 5337 2909 5340 2922 5340 2980 C 5340 3029 5336 3053 5324 3064 C 5304 3084 5246 3085 5230 3065 Z" style="fill: rgb(255, 0, 0);"/>
      <path d="M 5063 3000 L 5073 2930 L 5121 2930 L 5170 2930 L 5170 3000 L 5170 3070 L 5112 3070 L 5054 3070 L 5063 3000 Z" style="fill: rgb(255, 0, 0);"/>
      <path d="M 5394 3059 C 5392 3055 5391 3023 5392 2986 L 5394 2920 L 5695 2921 C 5860 2921 6017 2925 6045 2928 L 6094 2935 L 6105 2998 C 6112 3037 6113 3063 6107 3067 C 6095 3074 5399 3067 5394 3059 Z" style="fill: rgb(255, 0, 0);"/>
    </g>
    <path d="M 5365 1870 C 5226 1861 5167 1849 5102 1816 C 5000 1763 4947 1685 4946 1585 C 4946 1348 5244 1185 5647 1203 C 5880 1213 6057 1275 6167 1385 C 6215 1433 6232 1458 6244 1500 C 6276 1606 6260 1693 6197 1758 C 6145 1812 6081 1839 5951 1861 C 5873 1874 5510 1880 5365 1870 Z M 5320 1682 C 5353 1648 5367 1593 5352 1550 C 5342 1522 5343 1520 5365 1520 C 5378 1520 5396 1510 5404 1498 C 5441 1446 5417 1426 5281 1395 C 5219 1381 5157 1370 5144 1370 C 5118 1370 5100 1396 5100 1433 C 5100 1461 5114 1476 5152 1485 C 5179 1492 5179 1493 5165 1521 C 5157 1536 5150 1565 5150 1585 C 5150 1690 5253 1749 5320 1682 Z M 6009 1684 C 6056 1645 6071 1555 6037 1512 C 6025 1497 6043 1480 6071 1480 C 6109 1480 6125 1416 6094 1386 C 6075 1366 6055 1366 5966 1386 C 5791 1426 5777 1434 5796 1487 C 5802 1506 5813 1516 5831 1518 C 5856 1521 5857 1523 5852 1570 C 5846 1630 5863 1676 5899 1695 C 5938 1716 5975 1713 6009 1684 Z" style="fill: rgb(252, 202, 167);"/>
  </g>
</svg>