<?xml version="1.0" encoding="utf-8"?>
<svg viewBox="-1473.501 -1395.468 3606.005 3606.005" xmlns="http://www.w3.org/2000/svg">
  <defs>
    <clipPath id="clip-3">
      <rect x="-0.691" y="1.366" width="34.559" height="57.269" style="fill: rgb(216, 216, 216);"/>
    </clipPath>
    <radialGradient gradientUnits="userSpaceOnUse" cx="8845.226" cy="9163.68" r="360.994" id="gradient-0" gradientTransform="matrix(0.755024, 0.123391, -0.390501, 2.389454, 6860.401367, -17270.494141)">
      <stop offset="0" style="stop-color: rgb(255, 0, 0);"/>
      <stop offset="1" style="stop-color: rgb(106, 0, 0);"/>
    </radialGradient>
    <clipPath id="clip-2">
      <rect x="33.867" y="1.366" width="34.559" height="57.269" style="fill: rgb(216, 216, 216);"/>
    </clipPath>
    <radialGradient gradientUnits="userSpaceOnUse" cx="10283.987" cy="9370.543" r="225.274" id="gradient-3" gradientTransform="matrix(0.382065, 0.076538, -0.582785, 2.909167, 12921.032227, -22085.978516)">
      <stop offset="0" style="stop-color: rgb(255, 0, 0);"/>
      <stop offset="1" style="stop-color: rgb(106, 0, 0);"/>
    </radialGradient>
    <linearGradient gradientUnits="userSpaceOnUse" x1="1046.489" y1="3806" x2="1046.489" y2="5850" id="gradient-1">
      <stop offset="0" style="stop-color: rgb(0, 195, 255);"/>
      <stop offset="1" style="stop-color: rgb(255, 255, 255);"/>
    </linearGradient>
  </defs>
  <g style="" transform="matrix(0.943447, 0, 0, 0.943447, -1577.400269, -4951.521973)">
    <title>bl</title>
    <path d="M 2160 7590 C 1987 7590 1973 7581 2034 7506 L 2067 7465 L 2094 7200 C 2121 6940 2167 6561 2193 6388 C 2200 6339 2204 6300 2202 6300 C 2200 6300 2185 6309 2170 6320 C 2116 6358 1974 6420 1902 6437 C 1832 6454 1828 6456 1811 6496 C 1784 6555 1731 6592 1665 6598 C 1578 6605 1566 6598 1509 6511 C 1472 6453 1446 6424 1410 6402 C 1337 6356 1297 6259 1319 6182 C 1327 6154 1324 6137 1293 6065 C 1274 6018 1256 5980 1253 5980 C 1251 5980 1240 5985 1229 5991 C 1196 6008 1148 6005 1134 5985 C 1102 5941 1131 5897 1198 5886 C 1221 5883 1240 5878 1240 5876 C 1240 5873 1215 5814 1184 5743 C 920 5141 681 4486 589 4112 C 571 4037 587 3972 660 3821 C 736 3665 758 3633 775 3652 C 782 3659 820 3775 860 3910 C 926 4137 985 4317 1198 4941 C 1295 5225 1483 5740 1496 5759 C 1498 5761 1511 5753 1527 5743 C 1568 5714 1589 5709 1611 5720 C 1644 5738 1636 5784 1594 5817 L 1557 5847 L 1659 6075 L 1714 6072 C 1836 6067 2029 5961 2154 5831 L 2193 5791 L 2164 5769 C 2148 5757 2099 5710 2055 5666 C 1873 5482 1800 5217 1841 4885 C 1890 4482 2108 4237 2477 4165 C 2757 4111 3074 4160 3269 4288 C 3347 4339 3450 4444 3492 4515 C 3585 4676 3613 4798 3613 5050 C 3613 5264 3600 5343 3545 5458 C 3503 5547 3394 5664 3288 5735 L 3219 5782 L 3291 5816 C 3458 5896 3639 6060 3759 6240 C 3794 6292 3839 6354 3860 6376 C 3936 6458 3939 6575 3868 6656 C 3790 6745 3650 6748 3568 6663 C 3524 6617 3510 6584 3510 6521 C 3510 6466 3483 6422 3411 6357 C 3366 6317 3287 6275 3282 6289 C 3281 6293 3293 6373 3309 6466 C 3356 6731 3377 6877 3405 7125 C 3438 7430 3437 7423 3476 7480 C 3495 7507 3510 7536 3510 7543 C 3510 7562 3458 7570 3323 7570 C 3202 7570 3118 7557 3100 7535 C 3093 7527 3073 7452 3054 7368 C 2989 7070 2917 6948 2792 6919 C 2693 6897 2597 6958 2535 7084 C 2501 7152 2494 7180 2439 7467 C 2427 7527 2393 7563 2332 7580 C 2312 7585 2234 7590 2160 7590 Z" style=""/>
    <path d="M 1318 5850 C 1336 5850 1430 5807 1430 5799 C 1430 5792 1387 5673 1245 5290 C 1216 5210 1173 5093 1150 5030 C 1127 4967 1092 4872 1073 4820 C 1015 4663 825 4084 784 3941 L 746 3806 L 718 3870 C 661 3996 655 4025 670 4099 C 722 4362 993 5125 1220 5645 C 1249 5711 1281 5784 1291 5808 C 1301 5831 1313 5850 1318 5850 Z" style="fill: url(#gradient-1);"/>
    <g style="">
      <path d="M 2431 6883 C 2431 6845 2437 6790 2443 6760 C 2454 6712 2458 6705 2481 6702 C 2504 6699 2508 6704 2523 6759 C 2532 6792 2543 6844 2546 6875 C 2554 6942 2548 6950 2478 6950 L 2430 6950 L 2431 6883 Z" style="fill: rgb(255, 0, 0);"/>
      <path d="M 2246 6880 C 2201 6830 2206 6817 2308 6728 C 2351 6689 2365 6684 2388 6698 C 2413 6714 2333 6911 2299 6918 C 2290 6920 2267 6903 2246 6880 Z" style="fill: rgb(255, 0, 0);"/>
      <path d="M 2408 6643 C 2398 6641 2387 6627 2384 6613 C 2375 6580 2386 6492 2401 6474 C 2415 6457 2472 6456 2488 6472 C 2501 6485 2504 6608 2492 6627 C 2483 6641 2434 6651 2408 6643 Z" style="fill: rgb(255, 0, 0);"/>
      <path d="M 2225 6573 C 2229 6535 2233 6504 2233 6503 C 2239 6498 2330 6497 2330 6503 C 2330 6507 2330 6539 2330 6575 L 2330 6640 L 2274 6640 L 2218 6640 L 2225 6573 Z" style="fill: rgb(255, 0, 0);"/>
      <path d="M 2555 6565 C 2559 6527 2564 6493 2567 6490 C 2574 6482 3180 6486 3221 6493 C 3255 6500 3258 6503 3263 6545 C 3267 6570 3272 6601 3276 6615 L 3282 6639 L 2915 6637 L 2549 6635 L 2555 6565 Z" style="fill: rgb(255, 0, 0);"/>
    </g>
    <path d="M 1600 6512 C 1600 6477 1633 6459 1690 6462 L 1743 6465 L 1716 6498 C 1692 6525 1682 6530 1644 6530 C 1608 6530 1600 6527 1600 6512 Z" style="fill: rgb(252, 202, 167);"/>
    <path d="M 1410 6080 C 1410 6073 1420 6055 1431 6038 C 1451 6011 1457 6008 1492 6013 C 1543 6020 1548 6025 1528 6058 C 1514 6081 1503 6085 1461 6088 C 1427 6090 1410 6087 1410 6080 Z" style="fill: rgb(252, 202, 167);"/>
    <path d="M 2551 5469 C 2365 5460 2307 5450 2234 5416 C 2122 5364 2070 5288 2070 5179 C 2070 4980 2257 4846 2600 4800 C 2812 4771 3106 4835 3247 4941 C 3341 5011 3380 5085 3380 5192 C 3380 5325 3301 5408 3138 5444 C 3017 5471 2784 5481 2551 5469 Z M 2426 5291 C 2464 5268 2485 5214 2477 5159 C 2473 5128 2475 5120 2488 5120 C 2512 5120 2540 5090 2540 5064 C 2540 5030 2509 5015 2378 4987 C 2275 4965 2259 4964 2241 4977 C 2213 4996 2212 5055 2239 5070 C 2250 5075 2268 5080 2279 5080 C 2304 5080 2304 5082 2284 5122 C 2252 5184 2283 5275 2345 5300 C 2376 5313 2393 5311 2426 5291 Z M 3137 5278 C 3150 5266 3165 5239 3172 5218 C 3183 5182 3178 5152 3154 5093 C 3150 5085 3157 5080 3170 5080 C 3209 5080 3230 5062 3230 5027 C 3230 4962 3198 4957 3041 4994 C 2932 5020 2910 5031 2910 5063 C 2910 5088 2938 5120 2960 5120 C 2974 5120 2976 5128 2973 5173 C 2964 5286 3062 5348 3137 5278 Z" style="fill: rgb(252, 202, 167);"/>
    <path d="M 1356 5982 C 1354 5978 1361 5960 1372 5942 C 1390 5913 1397 5910 1441 5910 C 1496 5910 1500 5918 1469 5961 C 1452 5985 1442 5990 1405 5990 C 1381 5990 1359 5986 1356 5982 Z" style="fill: rgb(252, 202, 167);"/>
  </g>
  <g transform="matrix(0.458988, -0.200734, 0.200734, 0.458988, -6711.17041, -1045.644775)" style="">
    <g transform="matrix(0.958214, -0.286056, 0.286056, 0.958214, -1293.162598, 4478.660156)">
      <g class="style-scope ytd-topbar-logo-renderer" transform="matrix(47.408737, 7.946162, -7.946162, 47.408737, 8392.374023, 4092.154785)" style="clip-path: url(#clip-3);">
        <title>play button</title>
        <path fill="#FF0000" d="M63,14.87c-0.72-2.7-2.85-4.83-5.56-5.56C52.54,8,32.88,8,32.88,8S13.23,8,8.32,9.31 c-2.7,0.72-4.83,2.85-5.56,5.56C1.45,19.77,1.45,30,1.45,30s0,10.23,1.31,15.13c0.72,2.7,2.85,4.83,5.56,5.56 C13.23,52,32.88,52,32.88,52s19.66,0,24.56-1.31c2.7-0.72,4.83-2.85,5.56-5.56C64.31,40.23,64.31,30,64.31,30 S64.31,19.77,63,14.87z" class="style-scope ytd-topbar-logo-renderer"/>
        <polygon fill="#FFFFFF" points="26.6,39.43 42.93,30 26.6,20.57" class="style-scope ytd-topbar-logo-renderer"/>
      </g>
      <polygon style="stroke: rgb(0, 0, 0); fill: url(#gradient-0);" points="9929.038 4740.713 10308.331 5070.098 10062.505 6352.049 9586.344 6823.498"/>
    </g>
    <g transform="matrix(0.994879, 0.101069, -0.101069, 0.994879, 442.534882, -991.718567)">
      <g class="style-scope ytd-topbar-logo-renderer" transform="matrix(47.133968, 9.440274, -9.440274, 47.133968, 10132.711914, 4346.879395)" style="clip-path: url(#clip-2);">
        <title>play button</title>
        <path fill="#FF0000" d="M63,14.87c-0.72-2.7-2.85-4.83-5.56-5.56C52.54,8,32.88,8,32.88,8S13.23,8,8.32,9.31 c-2.7,0.72-4.83,2.85-5.56,5.56C1.45,19.77,1.45,30,1.45,30s0,10.23,1.31,15.13c0.72,2.7,2.85,4.83,5.56,5.56 C13.23,52,32.88,52,32.88,52s19.66,0,24.56-1.31c2.7-0.72,4.83-2.85,5.56-5.56C64.31,40.23,64.31,30,64.31,30 S64.31,19.77,63,14.87z" class="style-scope ytd-topbar-logo-renderer"/>
        <polygon fill="#FFFFFF" points="26.6,39.43 42.93,30 26.6,20.57" class="style-scope ytd-topbar-logo-renderer"/>
      </g>
      <polygon style="stroke: rgb(0, 0, 0); fill: url(#gradient-3);" points="11237.538 7116.147 11202.88 6505.305 11423.823 5292.289 11653.429 5049.685"/>
    </g>
    <polygon style="fill: rgb(255, 0, 0);" points="10157.306 6145.598 10105.788 5429.849 10208.817 5447.302" transform="matrix(0.998689, 0.051192, -0.051192, 0.998689, 309.603096, -512.383947)"/>
    <polygon style="fill: rgb(255, 0, 0);" points="9906.974 6233.55 9835.845 5705.29 9978.104 5718.172" transform="matrix(0.953817, -0.300388, 0.300388, 0.953817, -1335.609099, 3251.620632)"/>
    <polygon style="fill: rgb(255, 0, 0);" points="11189.439 5246.827 11118.312 4718.573 11260.566 4731.454" transform="matrix(0.935204, 0.354109, -0.354109, 0.935204, 2489.448654, -3639.423335)"/>
    <polygon style="fill: rgb(255, 0, 0);" points="11434.298 4847.62 11395.611 4560.318 11472.982 4567.324" transform="matrix(0.935204, 0.354109, -0.354109, 0.935204, 2406.613191, -3744.190369)"/>
    <polygon style="fill: rgb(255, 0, 0);" points="11164.188 4806.994 11114.476 4278.742 11213.9 4291.621" transform="matrix(0.985845, 0.16766, -0.16766, 0.985845, 919.687354, -1807.482326)"/>
    <polygon style="fill: rgb(255, 0, 0);" points="9980.397 5643.931 9941.712 5356.628 10019.081 5363.634" transform="matrix(0.996462, -0.084046, 0.084046, 0.996462, -426.964585, 858.273015)"/>
  </g>
  <g class="style-scope ytd-topbar-logo-renderer" transform="matrix(23.451967, 0, 0, 23.451967, -3330.996826, 858.531372)" style="">
    <title>play button</title>
    <path fill="#FF0000" d="M63,14.87c-0.72-2.7-2.85-4.83-5.56-5.56C52.54,8,32.88,8,32.88,8S13.23,8,8.32,9.31 c-2.7,0.72-4.83,2.85-5.56,5.56C1.45,19.77,1.45,30,1.45,30s0,10.23,1.31,15.13c0.72,2.7,2.85,4.83,5.56,5.56 C13.23,52,32.88,52,32.88,52s19.66,0,24.56-1.31c2.7-0.72,4.83-2.85,5.56-5.56C64.31,40.23,64.31,30,64.31,30 S64.31,19.77,63,14.87z" class="style-scope ytd-topbar-logo-renderer"/>
    <polygon fill="#FFFFFF" points="26.6,39.43 42.93,30 26.6,20.57" class="style-scope ytd-topbar-logo-renderer"/>
  </g>
</svg>