<?xml version="1.0" encoding="utf-8"?>
<svg viewBox="0 0 500 500" xmlns="http://www.w3.org/2000/svg" xmlns:bx="https://greentree.cf">
  <g transform="matrix(2.215259, 1.330625, -1.330625, 2.215259, 21.325026, 535.182129)" style="">
    <path d="M -41.207 -256.543 C -42.86 -256.492 -44.64 -255.881 -46.66 -254.288 C -51.605 -256.195 -56.403 -256.858 -60.692 -252.975 C -67.315 -253.834 -69.467 -252.061 -71.098 -249.991 C -72.552 -250.021 -81.977 -251.486 -86.3 -245.038 C -97.162 -246.323 -100.595 -238.649 -96.705 -231.492 C -98.924 -228.058 -101.223 -224.665 -96.035 -218.117 C -97.87 -214.471 -96.732 -210.515 -92.409 -205.728 C -93.549 -200.601 -91.307 -196.985 -87.284 -194.166 C -88.037 -187.151 -80.851 -183.072 -78.706 -181.619 C -77.882 -177.532 -76.165 -173.674 -67.958 -171.542 C -66.604 -165.45 -61.672 -164.398 -56.895 -163.12 C -72.682 -153.943 -86.22 -141.87 -86.128 -112.245 L -88.441 -108.12 C -106.543 -97.112 -122.829 -61.73 -97.361 -32.972 C -95.698 -23.97 -92.908 -17.504 -90.424 -10.348 C -86.709 18.488 -62.462 31.991 -56.066 33.588 C -46.695 40.726 -36.714 47.499 -23.206 52.244 C -10.475 65.375 3.319 70.38 17.188 70.372 C 17.392 70.372 45.465 65.376 58.198 52.244 C 71.704 47.499 81.685 40.726 91.058 33.588 C 97.452 31.991 121.699 18.488 125.414 -10.348 C 127.898 -17.504 130.688 -23.97 132.352 -32.972 C 157.818 -61.733 141.533 -97.116 123.432 -108.124 L 121.115 -112.249 C 121.207 -141.871 107.669 -153.945 91.882 -163.124 C 96.658 -164.402 101.592 -165.454 102.944 -171.546 C 111.151 -173.679 112.869 -177.536 113.692 -181.623 C 115.838 -183.076 123.023 -187.155 122.272 -194.17 C 126.293 -196.989 128.536 -200.606 127.395 -205.732 C 131.719 -210.519 132.856 -214.475 131.021 -218.122 C 136.211 -224.666 133.908 -228.059 131.692 -231.493 C 135.58 -238.65 132.149 -246.325 121.283 -245.039 C 116.963 -251.487 107.539 -250.023 106.081 -249.993 C 104.451 -252.062 102.299 -253.835 95.676 -252.976 C 91.387 -256.859 86.591 -256.197 81.644 -254.289 C 75.77 -258.924 71.884 -255.209 67.444 -253.804 C 60.332 -256.128 58.705 -252.945 55.211 -251.648 C 47.455 -253.287 45.098 -249.719 41.381 -245.953 L 37.055 -246.039 C 25.357 -239.145 19.545 -225.107 17.485 -217.89 C 15.425 -225.108 9.626 -239.146 -2.07 -246.039 L -6.395 -245.953 C -10.118 -249.719 -12.474 -253.287 -20.23 -251.648 C -23.725 -252.945 -25.345 -256.128 -32.463 -253.804 C -35.377 -254.726 -38.057 -256.642 -41.212 -256.544"/>
    <path d="M -64.497 -226.214 C -33.461 -210.213 -15.418 -197.269 -5.533 -186.245 C -10.595 -165.956 -37.003 -165.03 -46.659 -165.599 C -44.682 -166.519 -43.032 -167.622 -42.447 -169.315 C -44.87 -171.037 -53.461 -169.497 -59.459 -172.866 C -57.155 -173.344 -56.077 -173.809 -55 -175.509 C -60.666 -177.316 -66.77 -178.874 -70.36 -181.868 C -68.423 -181.844 -66.614 -181.434 -64.084 -183.189 C -69.159 -185.924 -74.575 -188.092 -78.783 -192.273 C -76.159 -192.337 -73.33 -192.299 -72.507 -193.264 C -77.152 -196.142 -81.072 -199.342 -84.316 -202.843 C -80.644 -202.4 -79.093 -202.781 -78.205 -203.421 C -81.717 -207.018 -86.161 -210.055 -88.28 -214.487 C -85.554 -213.547 -83.059 -213.187 -81.261 -214.569 C -82.454 -217.261 -87.566 -218.849 -90.51 -225.14 C -87.639 -224.861 -84.595 -224.514 -83.986 -225.14 C -85.318 -230.568 -87.604 -233.62 -89.846 -236.782 C -83.703 -236.873 -74.395 -236.758 -74.816 -237.277 L -78.615 -241.158 C -72.614 -242.774 -66.474 -240.899 -62.016 -239.507 C -60.015 -241.086 -62.052 -243.083 -64.494 -245.122 C -59.394 -244.441 -54.786 -243.269 -50.62 -241.654 C -48.395 -243.663 -52.065 -245.673 -53.841 -247.682 C -45.962 -246.188 -42.624 -244.087 -39.307 -241.984 C -36.9 -244.291 -39.169 -246.252 -40.793 -248.26 C -34.852 -246.06 -31.792 -243.219 -28.571 -240.415 C -27.479 -241.889 -25.796 -242.97 -27.828 -246.526 C -23.61 -244.095 -20.433 -241.23 -18.083 -238.02 C -15.473 -239.682 -16.528 -241.954 -16.514 -244.049 C -12.13 -240.483 -9.348 -236.688 -5.943 -232.983 C -5.257 -233.483 -4.657 -235.176 -4.126 -237.855 C 6.331 -227.71 21.108 -202.155 -0.328 -192.023 C -18.571 -207.069 -40.359 -218.006 -64.504 -226.21 L -64.497 -226.214 M 100.181 -226.214 C 69.149 -210.211 51.106 -197.271 41.222 -186.245 C 46.284 -165.956 72.691 -165.03 82.347 -165.599 C 80.37 -166.519 78.72 -167.622 78.136 -169.315 C 80.559 -171.037 89.15 -169.497 95.147 -172.866 C 92.843 -173.344 91.766 -173.809 90.688 -175.509 C 96.355 -177.316 102.459 -178.874 106.048 -181.868 C 104.111 -181.844 102.302 -181.434 99.772 -183.189 C 104.848 -185.924 110.264 -188.092 114.472 -192.273 C 111.847 -192.337 109.018 -192.299 108.196 -193.264 C 112.841 -196.142 116.761 -199.342 120.005 -202.843 C 116.332 -202.4 114.782 -202.781 113.894 -203.421 C 117.405 -207.018 121.85 -210.055 123.969 -214.487 C 121.242 -213.547 118.747 -213.187 116.949 -214.569 C 118.142 -217.261 123.255 -218.849 126.198 -225.14 C 123.328 -224.861 120.283 -224.514 119.674 -225.14 C 121.009 -230.57 123.295 -233.622 125.537 -236.784 C 119.394 -236.875 110.086 -236.76 110.507 -237.279 L 114.306 -241.161 C 108.305 -242.776 102.165 -240.901 97.707 -239.509 C 95.706 -241.088 97.742 -243.085 100.184 -245.124 C 95.085 -244.444 90.476 -243.271 86.311 -241.656 C 84.085 -243.665 87.756 -245.675 89.532 -247.684 C 81.653 -246.19 78.315 -244.089 74.997 -241.986 C 72.59 -244.293 74.86 -246.254 76.484 -248.262 C 70.543 -246.062 67.483 -243.221 64.262 -240.417 C 63.169 -241.891 61.487 -242.972 63.518 -246.528 C 59.301 -244.097 56.124 -241.232 53.774 -238.022 C 51.164 -239.684 52.219 -241.957 52.205 -244.051 C 47.821 -240.485 45.039 -236.691 41.634 -232.985 C 40.948 -233.485 40.348 -235.178 39.817 -237.858 C 29.36 -227.712 14.583 -202.157 36.019 -192.025 C 54.252 -207.075 76.039 -218.01 100.185 -226.214 L 100.181 -226.214" fill="#75A928"/>
    <path d="M 55.428 -19.615 C 55.536 -0.682 38.979 14.747 18.448 14.846 C -2.084 14.946 -18.816 -0.321 -18.924 -19.254 C -18.925 -19.374 -18.925 -19.495 -18.924 -19.615 C -19.032 -38.547 -2.476 -53.976 18.056 -54.076 C 38.588 -54.176 55.319 -38.909 55.428 -19.976 L 55.428 -19.615 M -3.259 -117.544 C 12.145 -107.451 14.922 -84.575 2.943 -66.449 C -9.036 -48.322 -31.234 -41.808 -46.638 -51.9 C -62.042 -61.993 -64.818 -84.869 -52.84 -102.995 C -40.861 -121.122 -18.663 -127.636 -3.259 -117.544 M 38.317 -119.371 C 22.914 -109.279 20.137 -86.402 32.115 -68.276 C 44.094 -50.149 66.292 -43.635 81.696 -53.728 C 97.1 -63.82 99.877 -86.696 87.898 -104.823 C 75.92 -122.949 53.722 -129.463 38.317 -119.371 M -80.247 -101.044 C -63.616 -105.502 -74.632 -32.241 -88.164 -38.252 C -103.049 -50.224 -107.843 -85.285 -80.247 -101.044 M 111.948 -101.957 C 95.315 -106.414 106.333 -33.15 119.865 -39.161 C 134.75 -51.134 139.544 -86.199 111.948 -101.957 M 55.441 -156.514 C 84.142 -161.36 108.024 -144.308 107.06 -113.186 C 106.116 -101.254 44.867 -154.737 55.441 -156.514 M -23.859 -157.427 C -52.562 -162.274 -76.442 -145.218 -75.478 -114.098 C -74.534 -102.167 -13.284 -155.65 -23.859 -157.427 M 17.369 -164.685 C 0.239 -165.131 -16.201 -151.972 -16.241 -144.339 C -16.288 -135.065 -2.697 -125.569 17.486 -125.328 C 38.096 -125.181 51.248 -132.929 51.314 -142.5 C 51.39 -153.344 32.569 -164.853 17.369 -164.686 L 17.369 -164.685 M 18.415 25.495 C 33.35 24.843 53.39 30.305 53.43 37.552 C 53.678 44.588 35.255 60.486 17.425 60.179 C -1.041 60.976 -19.148 45.053 -18.911 39.534 C -19.188 31.442 3.573 25.124 18.415 25.495 M -36.749 -17.45 C -26.116 -4.64 -21.268 17.866 -30.142 24.501 C -38.537 29.566 -58.924 27.48 -73.414 6.663 C -83.187 -10.805 -81.928 -28.58 -75.066 -33.802 C -64.805 -40.052 -48.951 -31.609 -36.748 -17.45 L -36.749 -17.45 M 71.451 -21.511 C 59.946 -8.036 53.54 16.542 61.932 24.458 C 69.957 30.608 91.499 29.748 107.411 7.669 C 118.965 -7.16 115.094 -31.925 108.494 -38.501 C 98.69 -46.084 84.615 -36.379 71.451 -21.515 L 71.451 -21.511" style="fill: rgb(255, 0, 0);"/>
  </g>
  <path d="M 469.361 -88.846 L 524.065 -120.354 L 469.361 -151.861 Z M 469.361 -88.846" fill="#fff" style=""/>
  <path d="M 232.645 269.073 L 292.541 234.574 L 232.645 200.078 Z M 232.645 269.073" fill="#fff" style="" transform="matrix(1, 0.00003, -0.00003, 1, 0.007037, -0.007878)"/>
  <path d="M 243.53 462.398 L 315.768 420.79 L 243.53 379.185 Z M 243.53 462.398" fill="#fff" style="" transform="matrix(1, 0.00003, -0.00003, 1, 0.012624, -0.008389)"/>
  <path d="M 47.588 350.919 L 119.826 309.311 L 47.588 267.706 Z M 47.588 350.919" fill="#fff" style="" transform="matrix(1, 0.00003, -0.00003, 1, 0.009314, -0.002253)" bx:origin="0.381 0.514"/>
  <path d="M 69.679 185.161 L 115.992 158.485 L 69.679 131.811 Z M 69.679 185.161" fill="#fff" style="" transform="matrix(1, 0.00003, -0.00003, 1, 0.004755, -0.002785)"/>
  <path d="M 375.286 364.62 L 421.6 337.944 L 375.286 311.27 Z M 375.286 364.62" fill="#fff" style="" transform="matrix(1, 0.00003, -0.00003, 1, 0.01015, -0.0118)" bx:origin="0.39 0.507"/>
  <path d="M 198.805 691.777 L 263.543 654.49 L 198.805 617.206 Z M 198.805 691.777" fill="#fff" style="" transform="matrix(0.857242, 0.514914, -0.514914, 0.857242, 370.008661, -25.600756)"/>
  <path d="M -117.27 494.006 L -52.532 456.719 L -117.27 419.434 Z M -117.27 494.006" fill="#fff" style="" transform="matrix(0.857242, 0.514914, -0.514914, 0.857242, 223.051139, 108.917157)"/>
  <path d="M -97.377 291.815 L -51.064 265.139 L -97.377 238.465 Z M -97.377 291.815" fill="#fff" style="" transform="matrix(0.857242, 0.514914, -0.514914, 0.857242, 125.928676, 76.068031)"/>
  <path d="M -15.113 684.658 L 31.201 657.982 L -15.113 631.308 Z M -15.113 684.658" fill="#fff" style="" transform="matrix(0.857242, 0.514914, -0.514914, 0.857242, 339.952887, 89.790405)"/>
</svg>