<?xml version="1.0" encoding="utf-8"?>
<svg viewBox="32.427 167.745 270 60" xmlns="http://www.w3.org/2000/svg">
  <g viewBox="0 0 200 60" preserveAspectRatio="xMidYMid meet" class="style-scope ytd-topbar-logo-renderer" style="pointer-events: auto;" transform="matrix(1, 0, 0, 1, 33.977131, 167.099915)">
    <title>youtube</title>
    <g class="style-scope ytd-topbar-logo-renderer">
      <path fill="#FF0000" d="M63,14.87c-0.72-2.7-2.85-4.83-5.56-5.56C52.54,8,32.88,8,32.88,8S13.23,8,8.32,9.31 c-2.7,0.72-4.83,2.85-5.56,5.56C1.45,19.77,1.45,30,1.45,30s0,10.23,1.31,15.13c0.72,2.7,2.85,4.83,5.56,5.56 C13.23,52,32.88,52,32.88,52s19.66,0,24.56-1.31c2.7-0.72,4.83-2.85,5.56-5.56C64.31,40.23,64.31,30,64.31,30 S64.31,19.77,63,14.87z" class="style-scope ytd-topbar-logo-renderer"/>
      <polygon fill="#FFFFFF" points="26.6,39.43 42.93,30 26.6,20.57" class="style-scope ytd-topbar-logo-renderer"/>
    </g>
    <g class="style-scope ytd-topbar-logo-renderer">
      <path fill="#282828" d="M 92.69 48.03 C 91.45 47.19 90.56 45.89 90.04 44.12 C 89.52 42.35 89.25 40 89.25 37.06 L 89.25 33.06 C 89.25 30.09 89.55 27.71 90.15 25.91 C 90.75 24.11 91.69 22.8 92.96 21.98 C 94.23 21.16 95.9 20.74 97.97 20.74 C 100.01 20.74 101.64 21.16 102.87 22 C 104.1 22.84 105 24.15 105.57 25.93 C 106.14 27.71 106.42 30.09 106.42 33.05 L 106.42 37.05 C 106.42 39.99 106.14 42.35 105.59 44.13 C 105.04 45.91 104.14 47.22 102.89 48.04 C 101.65 48.86 99.96 49.28 97.83 49.28 C 95.65 49.29 93.93 48.87 92.69 48.03 Z M 99.66 43.71 C 100 42.81 100.18 41.34 100.18 39.31 L 100.18 30.72 C 100.18 28.74 100.01 27.3 99.66 26.38 C 99.32 25.47 98.71 25.01 97.84 25.01 C 97 25.01 96.41 25.47 96.06 26.38 C 95.72 27.29 95.54 28.74 95.54 30.72 L 95.54 39.31 C 95.54 41.35 95.7 42.82 96.03 43.71 C 96.36 44.61 96.96 45.06 97.83 45.06 C 98.71 45.06 99.31 44.61 99.66 43.71 Z" class="style-scope ytd-topbar-logo-renderer"/>
      <path fill="#282828" d="M 188.16 37.13 L 188.16 38.52 C 188.16 40.29 188.21 41.61 188.32 42.5 C 188.42 43.38 188.64 44.03 188.97 44.43 C 189.3 44.83 189.81 45.04 190.5 45.04 C 191.43 45.04 192.07 44.68 192.41 43.96 C 192.75 43.24 192.94 42.04 192.97 40.36 L 198.32 40.67 C 198.35 40.91 198.36 41.24 198.36 41.66 C 198.36 44.21 197.66 46.11 196.27 47.37 C 194.88 48.63 192.91 49.26 190.36 49.26 C 187.3 49.26 185.16 48.3 183.93 46.38 C 182.7 44.46 182.09 41.5 182.09 37.48 L 182.09 32.67 C 182.09 28.53 182.73 25.52 184 23.61 C 185.27 21.71 187.45 20.76 190.54 20.76 C 192.67 20.76 194.3 21.15 195.44 21.93 C 196.58 22.71 197.38 23.92 197.85 25.57 C 198.31 27.22 198.55 29.5 198.55 32.4 L 198.55 37.12 L 188.16 37.12 Z M 188.95 25.53 C 188.64 25.92 188.43 26.56 188.32 27.44 C 188.21 28.32 188.16 29.67 188.16 31.46 L 188.16 33.44 L 192.7 33.44 L 192.7 31.46 C 192.7 29.69 192.64 28.35 192.52 27.44 C 192.4 26.53 192.18 25.88 191.87 25.51 C 191.56 25.14 191.07 24.95 190.41 24.95 C 189.75 24.94 189.26 25.14 188.95 25.53 Z" class="style-scope ytd-topbar-logo-renderer" style="visibility: hidden;"/>
      <path fill="#282828" d="M 77.59 36.61 L 70.53 11.12 L 76.69 11.12 L 79.16 22.67 C 79.79 25.52 80.25 27.94 80.55 29.95 L 80.73 29.95 C 80.94 28.51 81.4 26.1 82.12 22.71 L 84.68 11.11 L 90.84 11.11 L 83.7 36.61 L 83.7 48.84 L 77.59 48.84 L 77.59 36.61 Z" class="style-scope ytd-topbar-logo-renderer"/>
      <path fill="#282828" d="M 126.45 21.28 L 126.45 48.83 L 121.6 48.83 L 121.06 45.46 L 120.93 45.46 C 119.61 48.01 117.63 49.28 115 49.28 C 113.17 49.28 111.82 48.68 110.95 47.48 C 110.08 46.28 109.65 44.41 109.65 41.86 L 109.65 21.28 L 115.85 21.28 L 115.85 41.51 C 115.85 42.74 115.98 43.62 116.25 44.14 C 116.52 44.66 116.97 44.93 117.6 44.93 C 118.14 44.93 118.66 44.77 119.15 44.44 C 119.64 44.11 120.01 43.69 120.25 43.18 L 120.25 21.28 L 126.45 21.28 Z" class="style-scope ytd-topbar-logo-renderer"/>
      <path fill="#282828" d="M 158.27 21.28 L 158.27 48.83 L 153.42 48.83 L 152.88 45.46 L 152.75 45.46 C 151.43 48.01 149.45 49.28 146.82 49.28 C 144.99 49.28 143.64 48.68 142.77 47.48 C 141.9 46.28 141.47 44.41 141.47 41.86 L 141.47 21.28 L 147.67 21.28 L 147.67 41.51 C 147.67 42.74 147.8 43.62 148.07 44.14 C 148.34 44.66 148.79 44.93 149.42 44.93 C 149.96 44.93 150.48 44.77 150.97 44.44 C 151.46 44.11 151.83 43.69 152.07 43.18 L 152.07 21.28 L 158.27 21.28 Z" class="style-scope ytd-topbar-logo-renderer"/>
      <path fill="#282828" d="M 143.31 16.11 L 137.15 16.11 L 137.15 48.83 L 131.08 48.83 L 131.08 16.11 L 124.92 16.11 L 124.92 11.12 L 143.3 11.12 L 143.3 16.11 Z" class="style-scope ytd-topbar-logo-renderer"/>
      <path fill="#282828" d="M 178.8 25.69 C 178.42 23.95 177.82 22.69 176.98 21.91 C 176.14 21.13 174.99 20.74 173.52 20.74 C 172.38 20.74 171.32 21.06 170.33 21.71 C 169.34 22.35 168.58 23.2 168.04 24.25 L 167.99 24.25 L 167.99 9.73 L 162.01 9.73 L 162.01 48.84 L 167.13 48.84 L 167.76 46.23 L 167.89 46.23 C 168.37 47.16 169.09 47.89 170.05 48.43 C 171.01 48.97 172.07 49.24 173.24 49.24 C 175.34 49.24 176.88 48.27 177.87 46.34 C 178.86 44.41 179.35 41.39 179.35 37.28 L 179.35 32.92 C 179.36 29.84 179.17 27.43 178.8 25.69 Z M 173.11 36.93 C 173.11 38.94 173.03 40.51 172.86 41.65 C 172.7 42.79 172.42 43.6 172.03 44.08 C 171.64 44.56 171.12 44.8 170.46 44.8 C 169.95 44.8 169.48 44.68 169.04 44.44 C 168.61 44.2 168.25 43.84 167.98 43.36 L 167.98 27.71 C 168.19 26.96 168.55 26.35 169.06 25.87 C 169.57 25.39 170.12 25.15 170.72 25.15 C 171.35 25.15 171.84 25.4 172.18 25.89 C 172.52 26.38 172.76 27.22 172.9 28.38 C 173.03 29.55 173.1 31.21 173.1 33.37 L 173.1 36.93 Z" class="style-scope ytd-topbar-logo-renderer"/>
    </g>
  </g>
  <g transform="matrix(1.075894, 0, 0, 1, -74.53791, 0.762676)" style="">
    <title>buddy</title>
    <path d="M 253.848 215.312 L 248.538 215.35 L 248.538 176.794 L 253.36 176.794 C 258.571 176.794 259.085 176.833 260.404 177.283 C 262.3 177.943 263.591 179.09 264.468 180.907 C 265.154 182.322 265.461 183.643 265.597 185.689 C 265.75 188.176 265.425 190.243 264.603 191.984 C 264.052 193.15 263.212 194.164 262.354 194.7 L 261.795 195.044 L 262.057 195.215 C 263.014 195.828 263.375 196.124 263.953 196.736 C 265.569 198.478 266.256 200.725 266.247 204.293 C 266.247 208.243 265.38 210.988 263.529 212.949 C 262.454 214.078 261.343 214.728 259.799 215.111 C 259.23 215.254 258.453 215.282 253.848 215.312 Z M 254.137 209.907 L 255.925 209.869 C 257.505 209.831 257.758 209.802 258.219 209.61 C 259.32 209.152 260.097 208.023 260.431 206.397 C 260.657 205.306 260.657 202.571 260.431 201.567 C 260.205 200.572 259.826 199.778 259.32 199.242 C 258.462 198.343 257.46 198.029 255.428 198.029 L 254.137 198.029 Z M 254.137 192.576 L 255.428 192.576 C 257.243 192.576 257.966 192.337 258.76 191.486 C 259.744 190.425 260.169 188.53 259.926 186.282 C 259.7 184.236 259.103 183.164 257.839 182.542 C 257.379 182.314 257.243 182.295 255.744 182.265 L 254.137 182.227 Z" style="fill: rgb(40, 40, 40); visibility: hidden;"/>
    <path d="M 311.58 211.371 C 311.236 209.898 311.21 209.114 311.21 200.926 C 311.21 194.288 311.236 192.787 311.345 191.907 C 311.842 188.157 313.684 186.062 316.484 186.073 C 317.215 186.073 318.127 186.292 318.678 186.579 C 319.22 186.876 320.375 187.775 321.062 188.444 C 321.342 188.722 321.604 188.942 321.63 188.942 C 321.658 188.942 321.685 186.206 321.685 182.868 L 321.685 176.794 L 326.832 176.794 L 326.832 215.341 L 321.965 215.341 L 321.911 212.337 L 321.306 213.16 C 320.249 214.584 319.256 215.369 318.109 215.665 C 314.93 216.498 312.393 214.824 311.58 211.371 Z M 321.17 209.888 L 321.685 209.477 L 321.685 200.955 L 321.676 192.432 L 321.152 192.03 C 320.24 191.323 319.526 191.026 318.759 191.017 C 318.19 191.017 318.027 191.056 317.675 191.275 C 317.178 191.581 316.872 192.04 316.601 192.863 C 316.402 193.475 316.402 193.542 316.375 200.562 C 316.339 208.205 316.357 208.511 316.808 209.553 C 317.089 210.214 317.45 210.616 317.946 210.806 C 318.795 211.141 320.023 210.787 321.17 209.888 Z" style="fill: rgb(40, 40, 40); visibility: hidden;"/>
    <path d="M 296.671 215.856 C 293.573 216.067 291.541 213.877 291.071 209.793 C 291.017 209.296 290.982 205.872 290.982 200.898 C 290.982 194.413 291.008 192.624 291.117 191.859 C 291.586 188.33 293.248 186.292 295.813 186.101 C 297.574 185.967 298.729 186.493 300.662 188.292 C 301.041 188.654 301.376 188.942 301.403 188.942 C 301.429 188.942 301.456 186.206 301.456 182.868 L 301.456 176.794 L 306.604 176.794 L 306.604 215.341 L 301.737 215.341 L 301.709 213.839 L 301.682 212.346 L 301.023 213.217 C 299.939 214.662 299.046 215.35 297.889 215.655 C 297.591 215.742 297.041 215.828 296.671 215.856 Z M 299.75 210.635 C 300.021 210.5 300.518 210.185 300.851 209.937 L 301.456 209.467 L 301.456 192.432 L 300.752 191.935 C 299.741 191.209 299.298 191.026 298.522 191.017 C 297.971 191.017 297.8 191.056 297.456 191.266 C 296.833 191.658 296.517 192.213 296.237 193.389 C 296.128 193.858 296.093 195.101 296.066 200.122 C 296.02 206.703 296.075 208.081 296.418 209.18 C 296.652 209.937 297.176 210.597 297.709 210.806 C 298.232 211.008 299.145 210.93 299.75 210.635 Z" style="fill: rgb(40, 40, 40); visibility: hidden;"/>
    <path d="M 332.558 225.302 L 330.987 225.302 L 330.987 220.443 L 332.142 220.405 C 333.253 220.377 333.334 220.358 333.931 220.041 C 334.671 219.639 335.032 219.152 335.348 218.09 C 335.52 217.498 335.547 217.211 335.538 215.833 C 335.538 214.379 335.51 214.14 335.213 212.773 C 335.032 211.959 334.011 207.263 332.937 202.346 C 331.871 197.431 330.725 192.18 330.399 190.678 C 330.074 189.176 329.785 187.875 329.758 187.788 C 329.713 187.626 329.876 187.617 332.314 187.617 L 334.924 187.617 L 335.357 190.085 C 335.601 191.433 335.89 193.06 336.007 193.69 C 336.115 194.321 336.639 197.249 337.172 200.194 C 338.22 206.077 338.201 206.02 338.256 205.972 C 338.283 205.934 339.015 201.706 340.243 194.36 C 340.468 192.992 340.712 191.548 340.784 191.156 C 340.848 190.763 341.019 189.807 341.155 189.023 L 341.39 187.617 L 343.954 187.617 C 345.363 187.617 346.518 187.636 346.518 187.655 C 346.518 187.683 346.356 188.468 346.157 189.406 C 345.968 190.343 345.29 193.566 344.667 196.559 C 339.475 221.447 339.827 219.86 339.339 221.141 C 338.446 223.514 337.073 224.756 334.906 225.159 C 334.409 225.245 333.551 225.302 332.558 225.302 Z" style="fill: rgb(40, 40, 40);"/>
  </g>
  <path fill="#282828" d="M 234.332 188.38 L 234.332 215.93 L 229.482 215.93 L 228.942 212.56 L 228.812 212.56 C 227.492 215.11 225.512 216.38 222.882 216.38 C 221.052 216.38 219.702 215.78 218.832 214.58 C 217.962 213.38 217.532 211.51 217.532 208.96 L 217.532 188.38 L 223.732 188.38 L 223.732 208.61 C 223.732 209.84 223.862 210.72 224.132 211.24 C 224.402 211.76 224.852 212.03 225.482 212.03 C 226.022 212.03 226.542 211.87 227.032 211.54 C 227.522 211.21 227.892 210.79 228.132 210.28 L 228.132 188.38 L 234.332 188.38 Z" class="style-scope ytd-topbar-logo-renderer"/>
  <path fill="#282828" d="M 255.052 200.377 C 254.672 202.117 254.072 203.377 253.232 204.157 C 252.392 204.937 251.242 205.327 249.772 205.327 C 248.632 205.327 247.572 205.007 246.582 204.357 C 245.592 203.717 244.832 202.867 244.292 201.817 L 244.242 201.817 L 244.242 216.337 L 238.262 216.337 L 238.262 177.227 L 243.382 177.227 L 244.012 179.837 L 244.142 179.837 C 244.622 178.907 245.342 178.177 246.302 177.637 C 247.262 177.097 248.322 176.827 249.492 176.827 C 251.592 176.827 253.132 177.797 254.122 179.727 C 255.112 181.657 255.602 184.677 255.602 188.787 L 255.602 193.147 C 255.612 196.227 255.422 198.637 255.052 200.377 Z M 249.362 189.137 C 249.362 187.127 249.282 185.557 249.112 184.417 C 248.952 183.277 248.672 182.467 248.282 181.987 C 247.892 181.507 247.372 181.267 246.712 181.267 C 246.202 181.267 245.732 181.387 245.292 181.627 C 244.862 181.867 244.502 182.227 244.232 182.707 L 244.232 198.357 C 244.442 199.107 244.802 199.717 245.312 200.197 C 245.822 200.677 246.372 200.917 246.972 200.917 C 247.602 200.917 248.092 200.667 248.432 200.177 C 248.772 199.687 249.012 198.847 249.152 197.687 C 249.282 196.517 249.352 194.857 249.352 192.697 L 249.352 189.137 Z" class="style-scope ytd-topbar-logo-renderer" transform="matrix(-1, 0, 0, -1, 493.86438, 393.164001)"/>
  <path fill="#282828" d="M 276.815 200.38 C 276.435 202.12 275.835 203.38 274.995 204.16 C 274.155 204.94 273.005 205.33 271.535 205.33 C 270.395 205.33 269.335 205.01 268.345 204.36 C 267.355 203.72 266.595 202.87 266.055 201.82 L 266.005 201.82 L 266.005 216.34 L 260.025 216.34 L 260.025 177.23 L 265.145 177.23 L 265.775 179.84 L 265.905 179.84 C 266.385 178.91 267.105 178.18 268.065 177.64 C 269.025 177.1 270.085 176.83 271.255 176.83 C 273.355 176.83 274.895 177.8 275.885 179.73 C 276.875 181.66 277.365 184.68 277.365 188.79 L 277.365 193.15 C 277.375 196.23 277.185 198.64 276.815 200.38 Z M 271.125 189.14 C 271.125 187.13 271.045 185.56 270.875 184.42 C 270.715 183.28 270.435 182.47 270.045 181.99 C 269.655 181.51 269.135 181.27 268.475 181.27 C 267.965 181.27 267.495 181.39 267.055 181.63 C 266.625 181.87 266.265 182.23 265.995 182.71 L 265.995 198.36 C 266.205 199.11 266.565 199.72 267.075 200.2 C 267.585 200.68 268.135 200.92 268.735 200.92 C 269.365 200.92 269.855 200.67 270.195 200.18 C 270.535 199.69 270.775 198.85 270.915 197.69 C 271.045 196.52 271.115 194.86 271.115 192.7 L 271.115 189.14 Z" class="style-scope ytd-topbar-logo-renderer" transform="matrix(-1, 0, 0, -1, 537.39035, 393.169998)"/>
</svg>