<?xml version="1.0" encoding="utf-8"?>
<svg viewBox="4 4 16 16" preserveAspectRatio="xMidYMid meet" focusable="false" class="style-scope yt-icon" style="pointer-events: none; display: block; width: 100%; height: 100%;" xmlns="http://www.w3.org/2000/svg">
  <g class="style-scope yt-icon" style="pointer-events: auto;">
    <path d="M 15.435 14.063 L 14.713 14.063 L 14.456 13.816 C 15.353 12.773 15.893 11.419 15.893 9.946 C 15.893 6.662 13.231 4 9.946 4 C 6.662 4 4 6.662 4 9.946 C 4 13.231 6.662 15.893 9.946 15.893 C 11.419 15.893 12.773 15.353 13.816 14.456 L 14.063 14.713 L 14.063 15.435 L 18.637 20 L 20 18.637 L 15.435 14.063 Z M 9.946 14.063 C 7.669 14.063 5.829 12.224 5.829 9.946 C 5.829 7.669 7.669 5.829 9.946 5.829 C 12.224 5.829 14.063 7.669 14.063 9.946 C 14.063 12.224 12.224 14.063 9.946 14.063 Z" class="style-scope yt-icon" style="fill: rgb(95, 99, 104);"/>
  </g>
</svg>